HIERARCHY
ROOT Hips
{
	OFFSET	0.00	0.00	0.00
	CHANNELS 6 Xposition Yposition Zposition Zrotation Xrotation Yrotation
	JOINT LeftUpperLeg
	{
		OFFSET	 0.100000	-0.066564	-0.000554
		CHANNELS 3 Zrotation Xrotation Yrotation
		JOINT LeftLowerLeg
		{
			OFFSET	 0.002447	-0.463436	-0.005172
			CHANNELS 3 Zrotation Xrotation Yrotation
			JOINT LeftFoot
			{
				OFFSET	-0.002447	-0.420480	-0.020576
				CHANNELS 3 Zrotation Xrotation Yrotation
				JOINT LeftToes
				{
					OFFSET	 0.003734	-0.104922	 0.126407
					CHANNELS 3 Zrotation Xrotation Yrotation
					End Site
					{
						OFFSET	 0.000000	 0.000000	 0.059955
					}
				}
			}
		}
	}
	JOINT RightUpperLeg
	{
		OFFSET	-0.100000	-0.066564	-0.000554
		CHANNELS 3 Zrotation Xrotation Yrotation
		JOINT RightLowerLeg
		{
			OFFSET	-0.002447	-0.463436	-0.005146
			CHANNELS 3 Zrotation Xrotation Yrotation
			JOINT RightFoot
			{
				OFFSET	 0.002447	-0.420479	-0.020602
				CHANNELS 3 Zrotation Xrotation Yrotation
				JOINT RightToes
				{
					OFFSET	-0.003734	-0.104922	 0.126407
					CHANNELS 3 Zrotation Xrotation Yrotation
					End Site
					{
						OFFSET	-0.000000	 0.000000	 0.059955
					}
				}
			}
		}
	}
	JOINT Spine
	{
		OFFSET	 0.000000	 0.099235	-0.012273
		CHANNELS 3 Zrotation Xrotation Yrotation
		JOINT Chest
		{
			OFFSET	-0.000001	 0.116455	-0.014223
			CHANNELS 3 Zrotation Xrotation Yrotation
			JOINT UpperChest
			{
				OFFSET	 0.000001	 0.133602	-0.016265
				CHANNELS 3 Zrotation Xrotation Yrotation
				JOINT LeftShoulder
				{
					OFFSET	 0.061058	 0.091105	 0.007056
					CHANNELS 3 Zrotation Xrotation Yrotation
					JOINT LeftUpperArm
					{
						OFFSET	 0.133942	-0.002659	-0.026009
						CHANNELS 3 Zrotation Xrotation Yrotation
						JOINT LeftLowerArm
						{
							OFFSET	 0.274047	 0.000000	 0.000000
							CHANNELS 3 Zrotation Xrotation Yrotation
							JOINT LeftHand
							{
								OFFSET	 0.276145	 0.000000	 0.000000
								CHANNELS 3 Zrotation Xrotation Yrotation
								End Site
								{
									OFFSET	 0.165687	 0.000000	 0.000000
								}
							}
						}
					}
				}
				JOINT Neck
				{
					OFFSET	 0.000000	 0.150325	 0.007929
					CHANNELS 3 Zrotation Xrotation Yrotation
					JOINT Head
					{
						OFFSET	 0.000000	 0.103218	 0.031424
						CHANNELS 3 Zrotation Xrotation Yrotation
						End Site
						{
							OFFSET	 0.000000	 0.061931	 0.018855
						}
					}
				}
				JOINT RightShoulder
				{
					OFFSET	-0.061057	 0.091105	 0.007056
					CHANNELS 3 Zrotation Xrotation Yrotation
					JOINT RightUpperArm
					{
						OFFSET	-0.133943	-0.002660	-0.026009
						CHANNELS 3 Zrotation Xrotation Yrotation
						JOINT RightLowerArm
						{
							OFFSET	-0.274047	 0.000000	 0.000000
							CHANNELS 3 Zrotation Xrotation Yrotation
							JOINT RightHand
							{
								OFFSET	-0.276145	 0.000000	 0.000000
								CHANNELS 3 Zrotation Xrotation Yrotation
								End Site
								{
									OFFSET	-0.165687	 0.000000	 0.000000
								}
							}
						}
					}
				}
			}
		}
	}
}
MOTION
Frames:    8
Frame Time: 0.03333334
-0.038910	 1.038200	-0.706460	-7.414414	 5.554900	 11.379400	 8.724263	-15.899150	-6.161304	 0.490318	 27.919480	-0.122417	-3.492629	-18.520280	 15.344760	-0.000511	 0.053149	 0.059087	 2.777302	 7.009697	-31.160790	 0.003323	 0.165724	-0.000152	 3.263526	-5.278626	-6.614482	 0.000537	 0.306111	-0.000574	 0.407531	 1.250506	-1.527704	-0.000000	 0.000000	 0.000000	 0.849440	 2.495904	-3.069598	-0.429841	-2.527106	 12.436450	-76.682910	 6.636600	-6.900269	-18.906760	 2.629656	-31.629870	 31.482280	 14.237240	-10.509450	 9.015638	-5.555168	-9.019372	 8.774951	-5.551284	-8.841590	-3.333751	 6.476265	-14.520660	 88.471770	 15.524140	 18.794900	 8.879850	 18.957370	 21.761760	-15.018410	 0.605157	 6.254216
-0.051660	 1.035620	-0.709800	-7.238964	 5.363511	 10.638780	 9.696454	-16.351770	-4.664060	 0.548661	 28.907510	-0.141706	-4.364422	-18.766240	 14.363280	 0.000678	 0.150178	 0.063465	 2.720131	 5.964396	-30.019760	 0.056816	 2.534588	-0.000131	 2.679580	-7.801461	-7.138681	 0.000444	 0.301760	-0.000256	 0.565703	 1.197683	-1.520306	-0.000000	 0.000000	 0.000000	 1.165255	 2.382355	-3.058286	-0.138931	-2.404929	 12.532020	-76.777020	 6.299919	-6.692680	-19.064230	 3.422533	-31.494340	 31.948410	 14.246480	-10.604640	 8.780543	-5.629951	-8.540554	 8.455190	-5.538274	-8.578984	-3.008939	 6.278068	-14.660240	 87.425280	 14.346940	 19.611680	 9.573295	 21.343100	 25.224490	-15.811020	 3.119573	 7.663845
-0.060940	 1.034230	-0.712250	-6.977747	 5.256145	 10.158810	 10.211550	-16.516450	-4.027493	 0.489601	 29.274390	-0.127635	-4.860914	-18.790060	 14.100430	 0.000860	 0.357465	 0.143449	 2.320715	 4.792311	-29.541060	 0.112459	 5.193743	-0.001702	 2.388007	-10.092120	-7.094487	 0.000062	 0.303184	 0.000660	 0.623982	 1.138194	-1.516407	-0.000000	 0.000000	 0.000000	 1.281837	 2.263735	-3.051305	-0.151058	-2.332734	 12.501510	-76.963230	 6.318776	-6.225426	-18.830320	 3.676008	-31.074790	 32.898590	 14.409320	-10.449700	 8.393727	-5.648784	-8.393959	 8.268051	-5.538085	-8.421751	-2.993674	 6.116755	-14.770020	 86.407540	 13.606650	 20.403050	 9.864686	 23.047740	 27.948050	-15.106720	 4.362038	 7.865500
-0.060940	 1.034230	-0.712250	-6.977747	 5.256145	 10.158810	 10.211550	-16.516450	-4.027493	 0.489601	 29.274390	-0.127635	-4.860914	-18.790060	 14.100430	 0.000860	 0.357465	 0.143449	 2.320715	 4.792311	-29.541060	 0.112459	 5.193743	-0.001702	 2.388007	-10.092120	-7.094487	 0.000062	 0.303184	 0.000660	 0.623982	 1.138194	-1.516407	-0.000000	 0.000000	 0.000000	 1.281837	 2.263735	-3.051305	-0.151058	-2.332734	 12.501510	-76.963230	 6.318776	-6.225426	-18.830320	 3.676008	-31.074790	 32.898590	 14.409320	-10.449700	 8.393727	-5.648784	-8.393959	 8.268051	-5.538085	-8.421751	-2.993674	 6.116755	-14.770020	 86.407540	 13.606650	 20.403050	 9.864686	 23.047740	 27.948050	-15.106720	 4.362038	 7.865500
-0.081600	 1.032420	-0.718750	-6.696880	 4.961148	 8.912235	 11.794600	-16.506320	-1.926695	 0.463733	 29.355880	-0.121814	-5.884441	-18.271100	 13.186270	-0.000559	 0.358671	 0.193351	 2.625172	 3.543235	-28.540640	 0.152684	 7.661472	-0.004981	 1.538670	-12.902760	-6.886983	-0.000160	 0.308728	 0.000849	 0.926103	 1.179919	-1.426847	-0.000000	 0.000000	 0.000000	 1.885586	 2.338547	-2.880589	 0.224265	-2.356013	 12.971140	-77.526230	 6.291044	-4.974301	-17.560790	 3.244363	-28.224690	 35.647400	 14.114820	-9.813520	 8.079050	-5.654943	-7.926459	 7.671529	-5.750376	-8.145747	-2.400213	 5.599234	-14.250820	 83.106600	 11.833850	 23.677810	 12.024670	 25.389210	 32.900590	-9.238634	 6.348436	 5.889648
-0.091260	 1.032310	-0.721600	-6.470029	 4.921867	 8.004173	 12.521200	-16.180850	-0.434523	 0.520208	 28.861770	-0.134372	-6.374104	-17.871370	 12.674100	-0.000249	 0.358337	 0.214420	 2.790290	 3.102127	-27.509350	 0.162275	 8.256824	-0.005109	 1.099824	-13.774720	-6.953607	 0.000338	 0.312073	-0.000211	 0.989935	 1.127974	-1.198497	-0.000000	 0.000000	 0.000000	 2.006299	 2.240606	-2.422050	-0.043138	-2.397190	 13.255270	-77.936480	 6.257212	-4.377525	-16.448200	 2.748585	-26.358470	 37.084270	 15.229080	-10.032590	 7.523420	-5.783563	-7.703753	 7.349599	-5.751704	-8.177956	-1.979699	 5.218261	-14.134590	 80.888280	 11.076130	 25.831510	 12.900310	 26.284110	 34.604650	-4.836903	 7.722401	 4.031477
-0.102640	 1.032400	-0.724890	-5.998623	 4.878888	 6.960112	 13.061390	-15.623200	 0.800425	 0.476740	 27.990430	-0.118536	-6.755239	-17.218780	 12.615290	 0.000234	 0.359352	 0.254949	 2.723348	 2.438806	-26.118490	 0.178218	 9.309682	-0.007887	 0.519277	-14.713780	-7.187651	 0.000717	 0.316930	 0.000361	 1.007834	 1.047249	-0.924988	-0.000000	 0.000000	 0.000000	 2.037381	 2.081148	-1.872873	-0.167384	-2.130598	 13.304310	-78.494340	 6.187659	-3.463574	-14.029960	 2.899126	-23.096320	 38.251830	 13.913040	-9.955546	 6.959510	-5.922592	-7.603065	 6.864969	-5.830420	-8.172959	-1.680442	 4.979694	-13.961570	 78.606300	 10.324010	 28.274650	 13.426980	 26.635060	 37.257130	 2.583655	 11.093940	 1.421301
-0.102640	 1.032400	-0.724890	-5.998623	 4.878888	 6.960112	 13.061390	-15.623200	 0.800425	 0.476740	 27.990430	-0.118536	-6.755239	-17.218780	 12.615290	 0.000234	 0.359352	 0.254949	 2.723348	 2.438806	-26.118490	 0.178218	 9.309682	-0.007887	 0.519277	-14.713780	-7.187651	 0.000717	 0.316930	 0.000361	 1.007834	 1.047249	-0.924988	-0.000000	 0.000000	 0.000000	 2.037381	 2.081148	-1.872873	-0.167384	-2.130598	 13.304310	-78.494340	 6.187659	-3.463574	-14.029960	 2.899126	-23.096320	 38.251830	 13.913040	-9.955546	 6.959510	-5.922592	-7.603065	 6.864969	-5.830420	-8.172959	-1.680442	 4.979694	-13.961570	 78.606300	 10.324010	 28.274650	 13.426980	 26.635060	 37.257130	 2.583655	 11.093940	 1.421301
